<svg width="998" height="498" viewBox="0 0 998 498" fill="none" xmlns="http://www.w3.org/2000/svg">
<path id="hello" d="M5 5C19.0668 84.1258 26.132 164.436 39.2222 243.667C49.3146 304.752 62.0902 364.914 67 426.778C68.2813 442.922 75.5266 471.7 72.3333 487.667C67.5661 511.503 51.674 443.622 42.7778 421C33.8039 398.181 23.6894 375.429 16.1111 352.111C9.19988 330.846 11.1189 310.641 7 289.222C0.524052 255.547 16.5466 237.742 47.4444 226.778C93.717 210.358 148.33 197 197.889 197C211.935 197 226.076 197.501 240.111 197C255.167 196.462 229.467 150.099 227.444 145C217.973 121.115 205.402 92.7547 201 67.4444C196.383 40.895 201.976 73.3514 205.889 83.6667C241.95 178.737 254.311 278.77 285 375.222C287.885 384.289 292.793 449 303 449C322.083 449 339.387 449.806 357 441C396.043 421.478 391.341 379.778 388.556 340.778C387.358 324.019 378.09 257 351 257C338.804 257 345.061 295.395 345.444 302.111C348.596 357.265 371.125 411.494 412.111 449.444C439.128 474.46 458.276 482.545 479.444 450.333C528.788 375.245 543.588 287.359 535.222 198.778C532.179 166.551 525.744 64.704 473.889 61C428.962 57.7909 510.081 249.413 519.222 266.333C556.097 334.59 610.378 398.866 667.222 451.222C678.455 461.568 682.846 456.435 688.556 445.444C715.999 392.616 735.356 350.529 736.778 290.111C738.234 228.202 734.942 125.321 679.444 81.8889C643.493 53.7527 648.621 194.769 652.556 211.667C663.495 258.641 694.764 301.471 732.111 331.222C752.631 347.568 785.964 370.052 813.222 372.778C854.951 376.951 848.504 325.11 849 293.889C849.499 262.446 876.969 252.915 905 262.778C921.063 268.429 934.56 282.984 948.111 293C962.336 303.514 913.266 285.133 897.444 277.222C868.901 262.95 846.41 263.559 841.889 299.222C835.459 349.943 858.266 391.544 912.333 400.556C949.484 406.747 960.356 357.137 954.556 328.778C948.826 300.764 916.663 251.056 881 257C869.775 258.871 868.874 288.171 869 296.111C869.34 317.5 883.13 334.79 905 336.778C931.569 339.193 969.773 342.936 993 329" stroke="black" stroke-width="10" stroke-linecap="round"/>
</svg>
